<svg xmlns="http://www.w3.org/2000/svg" xmlns:xlink="http://www.w3.org/1999/xlink" width="1080" zoomAndPan="magnify" viewBox="0 0 810 809.999993" height="1080" preserveAspectRatio="xMidYMid meet" version="1.0"><defs><clipPath id="c7a90bb412"><path d="M 89.605469 449 L 720 449 L 720 810 L 89.605469 810 Z M 89.605469 449 " clip-rule="nonzero"/></clipPath></defs><g clip-path="url(#c7a90bb412)"><path fill="#ffffff" d="M 155.128906 457.5625 L 90.238281 616.9375 L 90.238281 617.097656 C 89.679688 618.558594 89.386719 620.066406 89.351562 621.625 C 89.351562 621.800781 89.246094 621.960938 89.246094 622.148438 L 89.246094 796.613281 C 89.246094 797.492188 89.332031 798.359375 89.503906 799.222656 C 89.675781 800.085938 89.929688 800.921875 90.265625 801.734375 C 90.601562 802.546875 91.015625 803.320312 91.503906 804.050781 C 91.992188 804.78125 92.546875 805.457031 93.167969 806.078125 C 93.789062 806.699219 94.464844 807.253906 95.195312 807.742188 C 95.925781 808.230469 96.699219 808.644531 97.511719 808.980469 C 98.324219 809.316406 99.160156 809.570312 100.023438 809.742188 C 100.886719 809.914062 101.753906 810 102.632812 810 L 706.105469 810 C 706.984375 810 707.855469 809.914062 708.714844 809.742188 C 709.578125 809.570312 710.414062 809.316406 711.226562 808.980469 C 712.039062 808.644531 712.8125 808.230469 713.542969 807.742188 C 714.273438 807.253906 714.949219 806.699219 715.570312 806.078125 C 716.191406 805.457031 716.75 804.78125 717.238281 804.050781 C 717.726562 803.320312 718.136719 802.546875 718.472656 801.734375 C 718.808594 800.921875 719.0625 800.085938 719.234375 799.222656 C 719.40625 798.359375 719.492188 797.492188 719.492188 796.613281 L 719.492188 622.171875 C 719.492188 621.984375 719.386719 621.824219 719.386719 621.652344 C 719.351562 620.09375 719.058594 618.582031 718.503906 617.125 L 718.433594 616.964844 L 653.542969 457.644531 C 653.039062 456.410156 652.371094 455.277344 651.53125 454.246094 C 650.691406 453.214844 649.71875 452.324219 648.613281 451.582031 C 647.511719 450.839844 646.320312 450.273438 645.050781 449.886719 C 643.777344 449.496094 642.476562 449.300781 641.144531 449.300781 L 167.527344 449.300781 C 166.203125 449.300781 164.902344 449.488281 163.632812 449.871094 C 162.363281 450.253906 161.179688 450.8125 160.074219 451.550781 C 158.972656 452.285156 157.996094 453.164062 157.15625 454.1875 C 156.3125 455.214844 155.636719 456.339844 155.128906 457.5625 Z M 692.714844 721.316406 L 115.941406 721.316406 L 115.941406 635.5625 L 692.714844 635.5625 Z M 115.941406 783.222656 L 115.941406 748.09375 L 692.714844 748.09375 L 692.714844 783.222656 Z M 632.121094 476 L 686.195312 608.785156 L 122.460938 608.785156 L 176.539062 476 Z M 632.121094 476 " fill-opacity="1" fill-rule="nonzero"/></g><path fill="#ffffff" d="M 197.640625 576.023438 L 611.019531 576.023438 C 611.574219 576.023438 612.125 575.988281 612.675781 575.921875 C 613.222656 575.855469 613.769531 575.75 614.304688 575.617188 C 614.839844 575.480469 615.367188 575.3125 615.882812 575.113281 C 616.398438 574.910156 616.902344 574.679688 617.390625 574.414062 C 617.875 574.152344 618.34375 573.859375 618.796875 573.539062 C 619.246094 573.21875 619.675781 572.871094 620.085938 572.496094 C 620.492188 572.121094 620.875 571.722656 621.234375 571.300781 C 621.59375 570.878906 621.921875 570.433594 622.226562 569.972656 C 622.53125 569.507812 622.804688 569.027344 623.046875 568.53125 C 623.289062 568.035156 623.503906 567.523438 623.683594 567 C 623.863281 566.476562 624.011719 565.941406 624.125 565.402344 C 624.242188 564.859375 624.320312 564.3125 624.367188 563.761719 C 624.414062 563.210938 624.425781 562.65625 624.40625 562.101562 C 624.382812 561.550781 624.328125 561 624.234375 560.453125 C 624.144531 559.90625 624.023438 559.367188 623.863281 558.835938 C 623.707031 558.308594 623.519531 557.789062 623.296875 557.28125 L 604.285156 513.460938 C 603.765625 512.265625 603.082031 511.171875 602.242188 510.175781 C 601.402344 509.179688 600.4375 508.324219 599.34375 507.613281 C 598.253906 506.898438 597.085938 506.355469 595.835938 505.984375 C 594.585938 505.613281 593.3125 505.425781 592.007812 505.425781 L 216.652344 505.425781 C 215.347656 505.425781 214.070312 505.613281 212.824219 505.984375 C 211.574219 506.355469 210.402344 506.898438 209.3125 507.613281 C 208.222656 508.324219 207.257812 509.179688 206.417969 510.175781 C 205.574219 511.171875 204.894531 512.265625 204.375 513.460938 L 185.363281 557.28125 C 185.140625 557.789062 184.949219 558.308594 184.792969 558.835938 C 184.636719 559.367188 184.511719 559.90625 184.421875 560.453125 C 184.332031 561 184.277344 561.550781 184.253906 562.101562 C 184.234375 562.65625 184.246094 563.210938 184.292969 563.761719 C 184.339844 564.3125 184.417969 564.859375 184.53125 565.402344 C 184.648438 565.941406 184.792969 566.476562 184.976562 567 C 185.15625 567.523438 185.367188 568.035156 185.613281 568.53125 C 185.855469 569.027344 186.128906 569.507812 186.433594 569.972656 C 186.734375 570.433594 187.066406 570.878906 187.425781 571.300781 C 187.785156 571.722656 188.167969 572.121094 188.574219 572.496094 C 188.980469 572.871094 189.410156 573.21875 189.863281 573.539062 C 190.3125 573.859375 190.78125 574.152344 191.269531 574.414062 C 191.757812 574.679688 192.257812 574.910156 192.773438 575.113281 C 193.289062 575.3125 193.816406 575.480469 194.355469 575.617188 C 194.890625 575.75 195.433594 575.855469 195.984375 575.921875 C 196.535156 575.988281 197.085938 576.023438 197.640625 576.023438 Z M 225.445312 532.203125 L 583.210938 532.203125 L 590.617188 549.246094 L 218.042969 549.246094 Z M 225.445312 532.203125 " fill-opacity="1" fill-rule="nonzero"/><path fill="#ffffff" d="M 475.289062 141.714844 C 475.289062 140.503906 475.257812 139.289062 475.199219 138.074219 C 475.140625 136.863281 475.050781 135.652344 474.929688 134.441406 C 474.8125 133.234375 474.664062 132.027344 474.484375 130.828125 C 474.304688 129.625 474.097656 128.429688 473.863281 127.238281 C 473.625 126.046875 473.359375 124.863281 473.0625 123.683594 C 472.769531 122.503906 472.445312 121.335938 472.09375 120.171875 C 471.738281 119.011719 471.359375 117.859375 470.949219 116.714844 C 470.539062 115.570312 470.101562 114.4375 469.636719 113.316406 C 469.171875 112.195312 468.683594 111.082031 468.164062 109.984375 C 467.644531 108.886719 467.097656 107.804688 466.523438 106.730469 C 465.953125 105.660156 465.351562 104.605469 464.730469 103.5625 C 464.105469 102.519531 463.453125 101.496094 462.78125 100.484375 C 462.105469 99.476562 461.40625 98.484375 460.683594 97.507812 C 459.960938 96.53125 459.210938 95.574219 458.441406 94.636719 C 457.671875 93.695312 456.878906 92.777344 456.0625 91.878906 C 455.246094 90.976562 454.410156 90.097656 453.550781 89.238281 C 452.691406 88.378906 451.8125 87.542969 450.910156 86.726562 C 450.011719 85.910156 449.09375 85.117188 448.152344 84.347656 C 447.214844 83.578125 446.257812 82.832031 445.28125 82.105469 C 444.304688 81.382812 443.3125 80.683594 442.304688 80.011719 C 441.292969 79.335938 440.269531 78.6875 439.226562 78.0625 C 438.183594 77.4375 437.128906 76.839844 436.054688 76.265625 C 434.984375 75.695312 433.902344 75.148438 432.804688 74.628906 C 431.703125 74.109375 430.59375 73.617188 429.472656 73.152344 C 428.351562 72.6875 427.21875 72.25 426.074219 71.839844 C 424.929688 71.433594 423.777344 71.050781 422.613281 70.699219 C 421.453125 70.347656 420.28125 70.023438 419.105469 69.726562 C 417.925781 69.433594 416.742188 69.167969 415.550781 68.929688 C 414.359375 68.691406 413.164062 68.484375 411.960938 68.308594 C 410.757812 68.128906 409.554688 67.980469 408.347656 67.863281 C 407.136719 67.742188 405.925781 67.652344 404.714844 67.59375 C 403.5 67.535156 402.285156 67.503906 401.070312 67.503906 C 399.855469 67.503906 398.644531 67.535156 397.429688 67.59375 C 396.21875 67.652344 395.007812 67.742188 393.796875 67.863281 C 392.589844 67.980469 391.382812 68.128906 390.183594 68.308594 C 388.980469 68.488281 387.785156 68.695312 386.59375 68.929688 C 385.402344 69.167969 384.21875 69.433594 383.039062 69.730469 C 381.859375 70.023438 380.691406 70.347656 379.527344 70.703125 C 378.367188 71.054688 377.214844 71.433594 376.070312 71.84375 C 374.925781 72.253906 373.792969 72.691406 372.671875 73.15625 C 371.550781 73.621094 370.4375 74.113281 369.339844 74.632812 C 368.242188 75.152344 367.160156 75.699219 366.085938 76.269531 C 365.015625 76.84375 363.960938 77.441406 362.917969 78.066406 C 361.875 78.691406 360.851562 79.339844 359.839844 80.015625 C 358.832031 80.691406 357.839844 81.390625 356.863281 82.113281 C 355.886719 82.835938 354.929688 83.582031 353.992188 84.355469 C 353.050781 85.125 352.132812 85.917969 351.234375 86.734375 C 350.332031 87.550781 349.453125 88.386719 348.59375 89.246094 C 347.738281 90.105469 346.898438 90.984375 346.082031 91.882812 C 345.269531 92.785156 344.476562 93.703125 343.703125 94.640625 C 342.933594 95.582031 342.1875 96.539062 341.464844 97.515625 C 340.742188 98.488281 340.042969 99.484375 339.367188 100.492188 C 338.691406 101.503906 338.042969 102.527344 337.417969 103.570312 C 336.792969 104.613281 336.195312 105.667969 335.625 106.738281 C 335.050781 107.8125 334.503906 108.894531 333.984375 109.992188 C 333.464844 111.089844 332.976562 112.203125 332.511719 113.324219 C 332.046875 114.445312 331.609375 115.578125 331.199219 116.722656 C 330.789062 117.867188 330.410156 119.019531 330.058594 120.183594 C 329.703125 121.34375 329.382812 122.515625 329.085938 123.691406 C 328.789062 124.871094 328.523438 126.054688 328.289062 127.246094 C 328.050781 128.4375 327.84375 129.632812 327.664062 130.835938 C 327.488281 132.039062 327.339844 133.242188 327.21875 134.449219 C 327.101562 135.660156 327.011719 136.871094 326.953125 138.082031 C 326.894531 139.296875 326.863281 140.511719 326.863281 141.726562 C 326.863281 142.941406 326.894531 144.152344 326.953125 145.367188 C 327.011719 146.582031 327.101562 147.792969 327.222656 149 C 327.339844 150.207031 327.488281 151.414062 327.667969 152.613281 C 327.847656 153.816406 328.054688 155.011719 328.292969 156.203125 C 328.527344 157.394531 328.796875 158.578125 329.089844 159.757812 C 329.386719 160.9375 329.710938 162.105469 330.0625 163.269531 C 330.414062 164.429688 330.796875 165.582031 331.207031 166.726562 C 331.613281 167.871094 332.050781 169.003906 332.515625 170.125 C 332.980469 171.246094 333.472656 172.359375 333.992188 173.457031 C 334.511719 174.554688 335.058594 175.636719 335.632812 176.710938 C 336.203125 177.78125 336.804688 178.835938 337.425781 179.878906 C 338.050781 180.917969 338.703125 181.945312 339.375 182.957031 C 340.050781 183.964844 340.75 184.957031 341.476562 185.933594 C 342.199219 186.910156 342.945312 187.867188 343.714844 188.804688 C 344.488281 189.742188 345.28125 190.664062 346.097656 191.5625 C 346.910156 192.460938 347.75 193.339844 348.609375 194.199219 C 349.46875 195.058594 350.347656 195.894531 351.246094 196.710938 C 352.148438 197.527344 353.066406 198.320312 354.003906 199.089844 C 354.945312 199.859375 355.902344 200.609375 356.878906 201.332031 C 357.851562 202.054688 358.847656 202.753906 359.855469 203.429688 C 360.867188 204.101562 361.890625 204.753906 362.933594 205.375 C 363.976562 206 365.03125 206.597656 366.101562 207.171875 C 367.175781 207.742188 368.257812 208.289062 369.355469 208.808594 C 370.457031 209.328125 371.566406 209.820312 372.6875 210.285156 C 373.808594 210.75 374.941406 211.1875 376.085938 211.59375 C 377.230469 212.003906 378.382812 212.382812 379.546875 212.738281 C 380.707031 213.089844 381.878906 213.414062 383.054688 213.707031 C 384.234375 214.003906 385.417969 214.269531 386.609375 214.503906 C 387.800781 214.742188 389 214.949219 390.199219 215.128906 C 391.402344 215.304688 392.605469 215.453125 393.816406 215.574219 C 395.023438 215.691406 396.234375 215.78125 397.449219 215.839844 C 398.660156 215.898438 399.875 215.929688 401.089844 215.929688 C 402.304688 215.925781 403.515625 215.894531 404.730469 215.835938 C 405.941406 215.773438 407.152344 215.683594 408.359375 215.5625 C 409.570312 215.445312 410.773438 215.292969 411.972656 215.113281 C 413.175781 214.9375 414.371094 214.726562 415.5625 214.488281 C 416.75 214.25 417.9375 213.984375 419.113281 213.6875 C 420.289062 213.394531 421.460938 213.066406 422.621094 212.714844 C 423.785156 212.363281 424.933594 211.980469 426.078125 211.570312 C 427.222656 211.160156 428.351562 210.722656 429.476562 210.257812 C 430.597656 209.792969 431.707031 209.300781 432.800781 208.78125 C 433.898438 208.261719 434.984375 207.714844 436.054688 207.140625 C 437.125 206.570312 438.179688 205.96875 439.222656 205.34375 C 440.261719 204.722656 441.289062 204.070312 442.296875 203.394531 C 443.304688 202.722656 444.296875 202.023438 445.273438 201.300781 C 446.25 200.574219 447.207031 199.828125 448.144531 199.058594 C 449.082031 198.289062 450 197.496094 450.898438 196.679688 C 451.800781 195.863281 452.679688 195.027344 453.535156 194.167969 C 454.394531 193.308594 455.230469 192.429688 456.046875 191.53125 C 456.863281 190.632812 457.65625 189.710938 458.425781 188.773438 C 459.195312 187.835938 459.941406 186.878906 460.667969 185.902344 C 461.390625 184.929688 462.089844 183.9375 462.761719 182.925781 C 463.4375 181.917969 464.085938 180.890625 464.710938 179.851562 C 465.335938 178.808594 465.933594 177.753906 466.507812 176.683594 C 467.082031 175.613281 467.625 174.527344 468.144531 173.429688 C 468.664062 172.332031 469.15625 171.222656 469.621094 170.101562 C 470.085938 168.980469 470.523438 167.847656 470.933594 166.707031 C 471.34375 165.5625 471.726562 164.410156 472.078125 163.25 C 472.429688 162.085938 472.753906 160.917969 473.050781 159.742188 C 473.347656 158.5625 473.613281 157.378906 473.851562 156.1875 C 474.089844 154.996094 474.296875 153.800781 474.476562 152.601562 C 474.65625 151.398438 474.804688 150.195312 474.925781 148.988281 C 475.042969 147.78125 475.136719 146.570312 475.195312 145.355469 C 475.257812 144.144531 475.285156 142.929688 475.289062 141.714844 Z M 401.089844 189.152344 C 399.535156 189.152344 397.984375 189.078125 396.441406 188.925781 C 394.894531 188.773438 393.359375 188.546875 391.835938 188.242188 C 390.308594 187.941406 388.804688 187.5625 387.316406 187.113281 C 385.832031 186.664062 384.371094 186.140625 382.933594 185.546875 C 381.5 184.953125 380.097656 184.289062 378.726562 183.554688 C 377.355469 182.824219 376.023438 182.027344 374.730469 181.164062 C 373.441406 180.300781 372.195312 179.378906 370.992188 178.390625 C 369.792969 177.40625 368.640625 176.363281 367.542969 175.265625 C 366.441406 174.167969 365.402344 173.019531 364.414062 171.816406 C 363.429688 170.617188 362.503906 169.371094 361.640625 168.078125 C 360.777344 166.789062 359.980469 165.457031 359.246094 164.085938 C 358.515625 162.714844 357.851562 161.3125 357.253906 159.878906 C 356.660156 158.441406 356.136719 156.980469 355.6875 155.496094 C 355.234375 154.007812 354.859375 152.503906 354.554688 150.980469 C 354.25 149.457031 354.023438 147.921875 353.871094 146.375 C 353.71875 144.828125 353.640625 143.277344 353.640625 141.726562 C 353.640625 140.171875 353.714844 138.621094 353.867188 137.074219 C 354.019531 135.53125 354.246094 133.996094 354.550781 132.46875 C 354.851562 130.945312 355.230469 129.441406 355.679688 127.953125 C 356.132812 126.46875 356.652344 125.007812 357.25 123.570312 C 357.84375 122.136719 358.507812 120.734375 359.238281 119.363281 C 359.96875 117.992188 360.769531 116.660156 361.632812 115.367188 C 362.492188 114.078125 363.417969 112.832031 364.402344 111.628906 C 365.390625 110.429688 366.429688 109.277344 367.53125 108.179688 C 368.628906 107.082031 369.777344 106.039062 370.976562 105.050781 C 372.179688 104.066406 373.425781 103.140625 374.71875 102.277344 C 376.007812 101.414062 377.339844 100.617188 378.710938 99.886719 C 380.082031 99.152344 381.484375 98.488281 382.917969 97.894531 C 384.355469 97.300781 385.816406 96.777344 387.300781 96.324219 C 388.789062 95.875 390.292969 95.496094 391.816406 95.195312 C 393.339844 94.890625 394.875 94.664062 396.421875 94.511719 C 397.96875 94.359375 399.519531 94.28125 401.070312 94.28125 C 402.625 94.28125 404.175781 94.355469 405.722656 94.507812 C 407.265625 94.660156 408.800781 94.890625 410.328125 95.191406 C 411.851562 95.496094 413.355469 95.871094 414.84375 96.324219 C 416.328125 96.773438 417.789062 97.296875 419.226562 97.890625 C 420.660156 98.484375 422.0625 99.148438 423.433594 99.882812 C 424.804688 100.613281 426.136719 101.410156 427.425781 102.273438 C 428.71875 103.136719 429.964844 104.0625 431.167969 105.046875 C 432.367188 106.03125 433.515625 107.074219 434.617188 108.171875 C 435.714844 109.273438 436.757812 110.421875 437.742188 111.621094 C 438.726562 112.824219 439.652344 114.070312 440.515625 115.363281 C 441.378906 116.652344 442.175781 117.984375 442.910156 119.355469 C 443.640625 120.726562 444.304688 122.128906 444.898438 123.5625 C 445.496094 125 446.015625 126.460938 446.46875 127.945312 C 446.917969 129.433594 447.296875 130.9375 447.601562 132.460938 C 447.902344 133.984375 448.128906 135.519531 448.28125 137.066406 C 448.433594 138.613281 448.511719 140.164062 448.511719 141.714844 C 448.507812 143.269531 448.429688 144.816406 448.277344 146.359375 C 448.125 147.902344 447.894531 149.4375 447.589844 150.957031 C 447.285156 152.480469 446.910156 153.980469 446.457031 155.46875 C 446.007812 156.953125 445.484375 158.410156 444.890625 159.84375 C 444.292969 161.277344 443.632812 162.675781 442.898438 164.046875 C 442.167969 165.414062 441.371094 166.742188 440.511719 168.035156 C 439.648438 169.324219 438.726562 170.570312 437.742188 171.769531 C 436.757812 172.96875 435.71875 174.117188 434.621094 175.214844 C 433.527344 176.3125 432.378906 177.355469 431.179688 178.339844 C 429.980469 179.324219 428.738281 180.25 427.449219 181.113281 C 426.160156 181.976562 424.832031 182.777344 423.464844 183.507812 C 422.097656 184.242188 420.695312 184.90625 419.265625 185.503906 C 417.832031 186.101562 416.375 186.625 414.890625 187.078125 C 413.40625 187.53125 411.902344 187.910156 410.382812 188.21875 C 408.863281 188.523438 407.328125 188.753906 405.785156 188.910156 C 404.242188 189.066406 402.695312 189.148438 401.144531 189.152344 Z M 401.089844 189.152344 " fill-opacity="1" fill-rule="nonzero"/><path fill="#ffffff" d="M 536.164062 141.714844 C 536.164062 139.652344 536.117188 137.589844 536.023438 135.527344 C 535.929688 133.464844 535.789062 131.40625 535.601562 129.351562 C 535.414062 127.296875 535.175781 125.246094 534.894531 123.199219 C 534.613281 121.15625 534.28125 119.117188 533.90625 117.089844 C 533.53125 115.058594 533.109375 113.039062 532.640625 111.027344 C 532.171875 109.019531 531.65625 107.019531 531.097656 105.035156 C 530.535156 103.046875 529.929688 101.074219 529.28125 99.113281 C 528.628906 97.15625 527.933594 95.214844 527.195312 93.285156 C 526.453125 91.359375 525.671875 89.449219 524.84375 87.558594 C 524.015625 85.667969 523.144531 83.796875 522.230469 81.945312 C 521.320312 80.09375 520.363281 78.265625 519.367188 76.457031 C 518.371094 74.652344 517.332031 72.867188 516.253906 71.105469 C 515.171875 69.347656 514.054688 67.613281 512.894531 65.90625 C 511.738281 64.195312 510.539062 62.515625 509.304688 60.863281 C 508.070312 59.207031 506.796875 57.585938 505.488281 55.988281 C 504.175781 54.394531 502.832031 52.828125 501.449219 51.296875 C 500.066406 49.761719 498.652344 48.261719 497.199219 46.792969 C 495.75 45.324219 494.265625 43.890625 492.75 42.488281 C 491.234375 41.089844 489.6875 39.722656 488.105469 38.394531 C 486.527344 37.066406 484.917969 35.773438 483.28125 34.515625 C 481.640625 33.261719 479.976562 32.042969 478.28125 30.863281 C 476.585938 29.683594 474.867188 28.546875 473.121094 27.445312 C 471.375 26.34375 469.605469 25.285156 467.808594 24.265625 C 466.015625 23.246094 464.195312 22.269531 462.355469 21.332031 C 460.515625 20.398438 458.65625 19.503906 456.777344 18.652344 C 454.894531 17.804688 452.996094 16.996094 451.078125 16.234375 C 449.160156 15.46875 447.226562 14.75 445.273438 14.078125 C 443.324219 13.402344 441.359375 12.773438 439.378906 12.1875 C 437.398438 11.601562 435.40625 11.0625 433.402344 10.570312 C 431.398438 10.078125 429.382812 9.628906 427.359375 9.230469 C 425.332031 8.828125 423.300781 8.476562 421.261719 8.167969 C 419.21875 7.859375 417.171875 7.597656 415.117188 7.386719 C 413.066406 7.171875 411.007812 7.003906 408.949219 6.886719 C 406.886719 6.765625 404.824219 6.695312 402.761719 6.671875 C 400.695312 6.644531 398.632812 6.667969 396.570312 6.738281 C 394.507812 6.808594 392.445312 6.925781 390.390625 7.089844 C 388.332031 7.253906 386.277344 7.464844 384.230469 7.722656 C 382.183594 7.980469 380.140625 8.289062 378.109375 8.640625 C 376.074219 8.992188 374.050781 9.390625 372.035156 9.835938 C 370.019531 10.28125 368.015625 10.773438 366.019531 11.308594 C 364.027344 11.84375 362.046875 12.429688 360.082031 13.054688 C 358.113281 13.683594 356.164062 14.355469 354.226562 15.074219 C 352.292969 15.789062 350.375 16.550781 348.472656 17.355469 C 346.574219 18.160156 344.691406 19.011719 342.832031 19.902344 C 340.96875 20.792969 339.128906 21.726562 337.308594 22.703125 C 335.492188 23.679688 333.695312 24.695312 331.921875 25.753906 C 330.152344 26.8125 328.402344 27.910156 326.679688 29.046875 C 324.960938 30.1875 323.265625 31.363281 321.597656 32.578125 C 319.929688 33.796875 318.289062 35.050781 316.679688 36.339844 C 315.070312 37.632812 313.488281 38.960938 311.9375 40.324219 C 310.390625 41.6875 308.871094 43.085938 307.386719 44.519531 C 305.902344 45.953125 304.449219 47.417969 303.03125 48.917969 C 301.613281 50.417969 300.230469 51.949219 298.882812 53.511719 C 297.535156 55.078125 296.222656 56.671875 294.949219 58.292969 C 293.671875 59.917969 292.4375 61.570312 291.238281 63.25 C 290.039062 64.929688 288.878906 66.636719 287.757812 68.371094 C 286.636719 70.101562 285.554688 71.859375 284.515625 73.644531 C 283.476562 75.425781 282.476562 77.234375 281.519531 79.0625 C 280.5625 80.890625 279.648438 82.738281 278.773438 84.609375 C 277.902344 86.480469 277.074219 88.371094 276.289062 90.28125 C 275.503906 92.1875 274.761719 94.113281 274.0625 96.058594 C 273.367188 98 272.710938 99.957031 272.105469 101.929688 C 271.496094 103.902344 270.933594 105.890625 270.417969 107.886719 C 269.902344 109.886719 269.429688 111.894531 269.007812 113.914062 C 268.582031 115.933594 268.203125 117.964844 267.871094 120 C 267.542969 122.039062 267.257812 124.082031 267.019531 126.132812 C 266.78125 128.183594 266.589844 130.238281 266.445312 132.296875 C 266.304688 134.355469 266.207031 136.417969 266.160156 138.480469 C 266.109375 140.546875 266.109375 142.609375 266.152344 144.671875 C 266.199219 146.734375 266.292969 148.796875 266.433594 150.855469 C 266.574219 152.917969 266.761719 154.972656 266.996094 157.023438 C 267.230469 159.074219 267.511719 161.117188 267.839844 163.15625 C 268.167969 165.191406 268.542969 167.222656 268.964844 169.242188 C 269.382812 171.265625 269.851562 173.273438 270.367188 175.273438 C 270.878906 177.273438 271.4375 179.257812 272.042969 181.234375 C 272.648438 183.207031 273.296875 185.164062 273.992188 187.109375 C 274.6875 189.050781 275.425781 190.980469 276.207031 192.890625 C 276.992188 194.800781 277.816406 196.691406 278.6875 198.5625 C 279.554688 200.433594 280.46875 202.285156 281.421875 204.117188 C 282.375 205.945312 283.371094 207.753906 284.410156 209.539062 C 285.445312 211.324219 286.523438 213.082031 287.644531 214.816406 C 288.761719 216.554688 289.917969 218.261719 291.113281 219.945312 C 292.3125 221.625 293.546875 223.28125 294.816406 224.90625 C 296.089844 226.53125 297.398438 228.125 298.746094 229.691406 C 300.089844 231.257812 301.46875 232.789062 302.886719 234.292969 C 304.300781 235.792969 305.75 237.265625 307.234375 238.699219 C 308.71875 240.136719 310.234375 241.535156 311.78125 242.902344 C 313.328125 244.269531 314.90625 245.597656 316.515625 246.890625 C 318.121094 248.1875 319.757812 249.441406 321.425781 250.660156 C 323.089844 251.878906 324.785156 253.058594 326.503906 254.199219 C 328.226562 255.339844 329.96875 256.441406 331.742188 257.503906 C 333.511719 258.5625 335.304688 259.585938 337.125 260.5625 C 338.941406 261.542969 340.78125 262.476562 342.640625 263.371094 C 344.5 264.265625 346.378906 265.117188 348.277344 265.925781 C 350.179688 266.734375 352.09375 267.5 354.03125 268.21875 C 355.964844 268.9375 357.914062 269.613281 359.878906 270.246094 L 359.878906 315.886719 L 324.480469 315.886719 C 323.601562 315.886719 322.730469 315.972656 321.867188 316.144531 C 321.007812 316.316406 320.167969 316.570312 319.355469 316.90625 C 318.546875 317.242188 317.773438 317.65625 317.042969 318.144531 C 316.3125 318.632812 315.636719 319.1875 315.015625 319.808594 C 314.390625 320.429688 313.835938 321.105469 313.347656 321.835938 C 312.859375 322.566406 312.449219 323.339844 312.113281 324.152344 C 311.773438 324.964844 311.519531 325.800781 311.351562 326.664062 C 311.179688 327.523438 311.09375 328.394531 311.09375 329.273438 L 311.09375 385.023438 C 311.09375 385.902344 311.179688 386.773438 311.347656 387.636719 C 311.519531 388.5 311.773438 389.335938 312.113281 390.148438 C 312.449219 390.960938 312.859375 391.730469 313.347656 392.460938 C 313.835938 393.195312 314.390625 393.871094 315.015625 394.492188 C 315.636719 395.113281 316.3125 395.667969 317.042969 396.15625 C 317.773438 396.644531 318.546875 397.058594 319.355469 397.394531 C 320.167969 397.730469 321.007812 397.984375 321.867188 398.15625 C 322.730469 398.328125 323.601562 398.414062 324.480469 398.414062 L 359.878906 398.414062 L 359.878906 425.566406 C 359.878906 426.445312 359.964844 427.3125 360.136719 428.175781 C 360.308594 429.039062 360.5625 429.875 360.898438 430.6875 C 361.234375 431.5 361.648438 432.273438 362.136719 433.003906 C 362.625 433.734375 363.179688 434.410156 363.800781 435.03125 C 364.421875 435.652344 365.097656 436.207031 365.828125 436.695312 C 366.5625 437.183594 367.332031 437.597656 368.144531 437.933594 C 368.957031 438.269531 369.792969 438.523438 370.65625 438.695312 C 371.519531 438.867188 372.390625 438.953125 373.269531 438.953125 L 429.003906 438.953125 C 429.882812 438.953125 430.753906 438.867188 431.617188 438.695312 C 432.476562 438.523438 433.316406 438.269531 434.128906 437.933594 C 434.941406 437.597656 435.710938 437.183594 436.441406 436.695312 C 437.171875 436.207031 437.851562 435.652344 438.472656 435.03125 C 439.09375 434.410156 439.648438 433.734375 440.136719 433.003906 C 440.625 432.273438 441.039062 431.5 441.375 430.6875 C 441.710938 429.875 441.964844 429.039062 442.136719 428.175781 C 442.308594 427.3125 442.394531 426.445312 442.394531 425.566406 L 442.394531 398.371094 L 477.792969 398.371094 C 478.671875 398.371094 479.542969 398.285156 480.402344 398.117188 C 481.265625 397.945312 482.101562 397.691406 482.914062 397.355469 C 483.726562 397.015625 484.5 396.605469 485.230469 396.117188 C 485.960938 395.628906 486.636719 395.074219 487.257812 394.453125 C 487.878906 393.828125 488.433594 393.152344 488.921875 392.421875 C 489.414062 391.691406 489.824219 390.921875 490.160156 390.109375 C 490.496094 389.296875 490.75 388.457031 490.921875 387.597656 C 491.09375 386.734375 491.179688 385.863281 491.179688 384.984375 L 491.179688 329.234375 C 491.179688 328.355469 491.09375 327.484375 490.921875 326.621094 C 490.75 325.761719 490.496094 324.921875 490.160156 324.109375 C 489.824219 323.300781 489.414062 322.527344 488.921875 321.796875 C 488.433594 321.066406 487.878906 320.390625 487.257812 319.769531 C 486.636719 319.144531 485.960938 318.589844 485.230469 318.101562 C 484.5 317.613281 483.726562 317.203125 482.914062 316.867188 C 482.101562 316.527344 481.265625 316.273438 480.402344 316.105469 C 479.542969 315.933594 478.671875 315.847656 477.792969 315.847656 L 442.394531 315.847656 L 442.394531 270.207031 C 445.773438 269.132812 449.109375 267.929688 452.398438 266.59375 C 455.683594 265.257812 458.914062 263.792969 462.085938 262.203125 C 465.257812 260.609375 468.359375 258.894531 471.394531 257.058594 C 474.429688 255.21875 477.386719 253.265625 480.269531 251.195312 C 483.148438 249.121094 485.941406 246.9375 488.652344 244.644531 C 491.359375 242.351562 493.96875 239.957031 496.488281 237.453125 C 499.003906 234.953125 501.421875 232.359375 503.730469 229.667969 C 506.042969 226.976562 508.246094 224.195312 510.339844 221.328125 C 512.429688 218.464844 514.40625 215.519531 516.261719 212.496094 C 518.121094 209.472656 519.859375 206.382812 521.472656 203.222656 C 523.085938 200.0625 524.570312 196.84375 525.929688 193.566406 C 527.289062 190.289062 528.515625 186.960938 529.609375 183.585938 C 530.703125 180.210938 531.664062 176.796875 532.488281 173.347656 C 533.3125 169.894531 534 166.417969 534.546875 162.910156 C 535.097656 159.40625 535.507812 155.882812 535.777344 152.347656 C 536.046875 148.808594 536.175781 145.265625 536.164062 141.714844 Z M 429.058594 342.625 L 464.457031 342.625 L 464.457031 371.597656 L 429.003906 371.597656 C 428.125 371.597656 427.253906 371.679688 426.390625 371.851562 C 425.53125 372.023438 424.691406 372.277344 423.878906 372.613281 C 423.070312 372.953125 422.296875 373.363281 421.566406 373.851562 C 420.835938 374.339844 420.160156 374.894531 419.539062 375.515625 C 418.914062 376.140625 418.359375 376.816406 417.871094 377.546875 C 417.382812 378.277344 416.972656 379.046875 416.636719 379.859375 C 416.296875 380.671875 416.042969 381.511719 415.875 382.371094 C 415.703125 383.234375 415.617188 384.105469 415.617188 384.984375 L 415.617188 412.136719 L 386.65625 412.136719 L 386.65625 384.984375 C 386.65625 384.105469 386.570312 383.234375 386.398438 382.371094 C 386.226562 381.511719 385.972656 380.671875 385.636719 379.859375 C 385.300781 379.046875 384.886719 378.277344 384.398438 377.546875 C 383.910156 376.816406 383.355469 376.140625 382.734375 375.515625 C 382.113281 374.894531 381.4375 374.339844 380.707031 373.851562 C 379.976562 373.363281 379.203125 372.953125 378.390625 372.613281 C 377.578125 372.277344 376.742188 372.023438 375.878906 371.851562 C 375.019531 371.679688 374.148438 371.597656 373.269531 371.597656 L 337.871094 371.597656 L 337.871094 342.625 L 373.269531 342.625 C 374.148438 342.625 375.019531 342.539062 375.878906 342.367188 C 376.742188 342.195312 377.578125 341.941406 378.390625 341.605469 C 379.203125 341.269531 379.976562 340.855469 380.707031 340.367188 C 381.4375 339.878906 382.113281 339.324219 382.734375 338.703125 C 383.355469 338.082031 383.910156 337.402344 384.398438 336.671875 C 384.886719 335.941406 385.300781 335.171875 385.636719 334.359375 C 385.972656 333.546875 386.226562 332.710938 386.398438 331.847656 C 386.570312 330.984375 386.65625 330.113281 386.65625 329.234375 L 386.65625 260.015625 C 386.65625 259.265625 386.59375 258.523438 386.46875 257.78125 C 386.34375 257.042969 386.160156 256.320312 385.914062 255.609375 C 385.667969 254.902344 385.363281 254.21875 385 253.5625 C 384.640625 252.90625 384.226562 252.285156 383.761719 251.695312 C 383.292969 251.109375 382.785156 250.5625 382.226562 250.0625 C 381.667969 249.558594 381.074219 249.109375 380.441406 248.707031 C 379.808594 248.304688 379.144531 247.957031 378.453125 247.667969 C 377.761719 247.378906 377.050781 247.148438 376.320312 246.976562 C 374.191406 246.476562 372.078125 245.910156 369.980469 245.277344 C 367.886719 244.648438 365.808594 243.957031 363.757812 243.199219 C 361.703125 242.445312 359.671875 241.628906 357.667969 240.75 C 355.664062 239.871094 353.6875 238.929688 351.742188 237.933594 C 349.792969 236.933594 347.878906 235.878906 345.992188 234.761719 C 344.109375 233.648438 342.261719 232.476562 340.449219 231.25 C 338.636719 230.023438 336.863281 228.742188 335.128906 227.410156 C 333.394531 226.074219 331.703125 224.6875 330.050781 223.25 C 328.398438 221.8125 326.792969 220.328125 325.234375 218.792969 C 323.671875 217.257812 322.160156 215.679688 320.695312 214.050781 C 319.230469 212.425781 317.816406 210.757812 316.453125 209.046875 C 315.089844 207.332031 313.78125 205.582031 312.523438 203.789062 C 311.265625 202 310.0625 200.171875 308.917969 198.304688 C 307.769531 196.441406 306.683594 194.542969 305.652344 192.613281 C 304.617188 190.683594 303.648438 188.722656 302.734375 186.734375 C 301.820312 184.746094 300.972656 182.730469 300.179688 180.6875 C 299.390625 178.648438 298.664062 176.585938 297.996094 174.5 C 297.332031 172.414062 296.730469 170.3125 296.195312 168.191406 C 295.65625 166.066406 295.183594 163.933594 294.773438 161.78125 C 294.367188 159.632812 294.023438 157.472656 293.746094 155.300781 C 293.472656 153.128906 293.261719 150.953125 293.113281 148.765625 C 292.96875 146.582031 292.890625 144.398438 292.878906 142.207031 C 292.867188 140.019531 292.921875 137.832031 293.042969 135.648438 C 293.160156 133.460938 293.347656 131.28125 293.601562 129.109375 C 293.851562 126.933594 294.171875 124.769531 294.554688 122.617188 C 294.9375 120.460938 295.386719 118.320312 295.902344 116.191406 C 296.414062 114.066406 296.992188 111.953125 297.632812 109.863281 C 298.277344 107.769531 298.980469 105.699219 299.746094 103.648438 C 300.515625 101.597656 301.34375 99.574219 302.234375 97.574219 C 303.125 95.574219 304.074219 93.605469 305.082031 91.664062 C 306.09375 89.722656 307.160156 87.8125 308.285156 85.933594 C 309.410156 84.058594 310.589844 82.214844 311.828125 80.410156 C 313.066406 78.605469 314.355469 76.839844 315.699219 75.113281 C 317.042969 73.382812 318.441406 71.699219 319.886719 70.058594 C 321.332031 68.414062 322.828125 66.816406 324.371094 65.265625 C 325.914062 63.714844 327.503906 62.210938 329.136719 60.753906 C 330.773438 59.296875 332.449219 57.894531 334.167969 56.539062 C 335.886719 55.1875 337.648438 53.886719 339.445312 52.636719 C 341.246094 51.390625 343.078125 50.199219 344.949219 49.0625 C 346.820312 47.925781 348.722656 46.847656 350.660156 45.828125 C 352.597656 44.808594 354.5625 43.847656 356.554688 42.945312 C 358.550781 42.042969 360.570312 41.203125 362.617188 40.425781 C 364.660156 39.648438 366.726562 38.929688 368.816406 38.277344 C 370.90625 37.625 373.011719 37.035156 375.136719 36.507812 C 377.261719 35.984375 379.402344 35.523438 381.554688 35.128906 C 383.707031 34.730469 385.867188 34.402344 388.039062 34.136719 C 390.214844 33.871094 392.390625 33.671875 394.578125 33.539062 C 396.761719 33.40625 398.949219 33.339844 401.136719 33.339844 C 403.324219 33.339844 405.511719 33.40625 407.695312 33.539062 C 409.878906 33.671875 412.058594 33.871094 414.230469 34.136719 C 416.40625 34.402344 418.566406 34.730469 420.71875 35.128906 C 422.871094 35.523438 425.011719 35.984375 427.136719 36.507812 C 429.261719 37.035156 431.367188 37.625 433.457031 38.277344 C 435.542969 38.929688 437.609375 39.648438 439.65625 40.425781 C 441.703125 41.203125 443.722656 42.046875 445.714844 42.945312 C 447.710938 43.847656 449.675781 44.808594 451.613281 45.828125 C 453.546875 46.847656 455.453125 47.925781 457.324219 49.0625 C 459.195312 50.199219 461.027344 51.390625 462.828125 52.636719 C 464.625 53.886719 466.382812 55.1875 468.105469 56.539062 C 469.824219 57.894531 471.5 59.296875 473.136719 60.753906 C 474.769531 62.210938 476.359375 63.714844 477.902344 65.265625 C 479.445312 66.816406 480.941406 68.414062 482.386719 70.058594 C 483.832031 71.699219 485.226562 73.382812 486.570312 75.113281 C 487.917969 76.839844 489.207031 78.605469 490.445312 80.410156 C 491.679688 82.214844 492.863281 84.058594 493.988281 85.933594 C 495.113281 87.8125 496.179688 89.722656 497.191406 91.664062 C 498.199219 93.605469 499.148438 95.574219 500.039062 97.574219 C 500.929688 99.574219 501.757812 101.597656 502.523438 103.648438 C 503.292969 105.699219 503.996094 107.769531 504.636719 109.863281 C 505.28125 111.953125 505.859375 114.066406 506.371094 116.191406 C 506.886719 118.320312 507.332031 120.460938 507.71875 122.617188 C 508.101562 124.769531 508.417969 126.933594 508.671875 129.109375 C 508.925781 131.28125 509.109375 133.460938 509.230469 135.648438 C 509.351562 137.832031 509.40625 140.019531 509.394531 142.207031 C 509.382812 144.398438 509.300781 146.582031 509.15625 148.765625 C 509.011719 150.953125 508.800781 153.128906 508.523438 155.300781 C 508.246094 157.472656 507.90625 159.632812 507.496094 161.78125 C 507.089844 163.933594 506.617188 166.066406 506.078125 168.191406 C 505.542969 170.3125 504.941406 172.414062 504.273438 174.5 C 503.609375 176.585938 502.882812 178.648438 502.09375 180.6875 C 501.300781 182.730469 500.449219 184.746094 499.539062 186.734375 C 498.625 188.722656 497.652344 190.683594 496.621094 192.613281 C 495.589844 194.542969 494.503906 196.441406 493.355469 198.304688 C 492.210938 200.171875 491.007812 202 489.75 203.789062 C 488.492188 205.582031 487.183594 207.332031 485.820312 209.046875 C 484.457031 210.757812 483.042969 212.425781 481.578125 214.050781 C 480.113281 215.679688 478.597656 217.257812 477.039062 218.792969 C 475.476562 220.328125 473.871094 221.8125 472.222656 223.25 C 470.570312 224.6875 468.878906 226.074219 467.144531 227.410156 C 465.410156 228.742188 463.636719 230.023438 461.824219 231.25 C 460.011719 232.476562 458.160156 233.648438 456.277344 234.761719 C 454.394531 235.878906 452.480469 236.933594 450.53125 237.933594 C 448.585938 238.929688 446.609375 239.871094 444.605469 240.75 C 442.601562 241.628906 440.570312 242.445312 438.515625 243.199219 C 436.460938 243.957031 434.386719 244.648438 432.292969 245.277344 C 430.195312 245.910156 428.082031 246.476562 425.953125 246.976562 C 425.222656 247.148438 424.511719 247.378906 423.820312 247.667969 C 423.128906 247.957031 422.464844 248.304688 421.832031 248.707031 C 421.199219 249.109375 420.605469 249.558594 420.046875 250.0625 C 419.488281 250.5625 418.976562 251.109375 418.511719 251.695312 C 418.046875 252.285156 417.632812 252.90625 417.269531 253.5625 C 416.910156 254.21875 416.605469 254.902344 416.359375 255.609375 C 416.113281 256.320312 415.925781 257.042969 415.804688 257.78125 C 415.679688 258.523438 415.617188 259.265625 415.617188 260.015625 L 415.617188 329.234375 C 415.617188 330.113281 415.703125 330.984375 415.875 331.847656 C 416.042969 332.710938 416.296875 333.546875 416.636719 334.359375 C 416.972656 335.171875 417.382812 335.941406 417.871094 336.671875 C 418.359375 337.402344 418.914062 338.082031 419.539062 338.703125 C 420.160156 339.324219 420.835938 339.878906 421.566406 340.367188 C 422.296875 340.855469 423.070312 341.269531 423.878906 341.605469 C 424.691406 341.941406 425.53125 342.195312 426.390625 342.367188 C 427.253906 342.539062 428.125 342.625 429.003906 342.625 Z M 429.058594 342.625 " fill-opacity="1" fill-rule="nonzero"/></svg>