<svg xmlns="http://www.w3.org/2000/svg" xmlns:xlink="http://www.w3.org/1999/xlink" width="1080" zoomAndPan="magnify" viewBox="0 0 810 809.999993" height="1080" preserveAspectRatio="xMidYMid meet" version="1.0"><defs><clipPath id="14fcea74eb"><path d="M 590 477 L 784 477 L 784 688.742188 L 590 688.742188 Z M 590 477 " clip-rule="nonzero"/></clipPath><clipPath id="e72942b222"><path d="M 622 497 L 690 497 L 690 688.742188 L 622 688.742188 Z M 622 497 " clip-rule="nonzero"/></clipPath><clipPath id="888fa706e7"><path d="M 450 477 L 644 477 L 644 688.742188 L 450 688.742188 Z M 450 477 " clip-rule="nonzero"/></clipPath><clipPath id="2c4229801a"><path d="M 374 211 L 526 211 L 526 688.742188 L 374 688.742188 Z M 374 211 " clip-rule="nonzero"/></clipPath><clipPath id="d544db3c0e"><path d="M 378 647 L 451 647 L 451 688.742188 L 378 688.742188 Z M 378 647 " clip-rule="nonzero"/></clipPath><clipPath id="6a9efdc75e"><path d="M 170 200 L 522 200 L 522 688.742188 L 170 688.742188 Z M 170 200 " clip-rule="nonzero"/></clipPath><clipPath id="7e44bdf869"><path d="M 88 477 L 283 477 L 283 688.742188 L 88 688.742188 Z M 88 477 " clip-rule="nonzero"/></clipPath><clipPath id="dc35fd171e"><path d="M 122 599 L 189 599 L 189 688.742188 L 122 688.742188 Z M 122 599 " clip-rule="nonzero"/></clipPath></defs><path fill="#d21d53" d="M 788.816406 291.199219 C 787.566406 289.769531 788.636719 291.109375 787.566406 289.324219 L 786.941406 288.253906 C 786.851562 288.078125 786.761719 287.804688 786.671875 287.71875 C 786.582031 287.628906 786.496094 287.363281 786.40625 287.183594 C 786.40625 300.667969 791.40625 307.988281 789.976562 313.34375 C 782.742188 340.488281 790.066406 339.417969 804.804688 355.308594 C 809.984375 360.84375 806.324219 366.472656 800.964844 369.683594 C 798.640625 371.023438 798.015625 371.648438 796.140625 372.898438 C 796.140625 380.128906 802.75 390.132812 794.53125 392.363281 C 794.53125 395.84375 796.140625 397.988281 794.265625 400.933594 C 792.300781 404.058594 789.886719 403.253906 788.546875 406.648438 C 786.492188 411.554688 794.53125 431.734375 775.597656 435.664062 C 755.40625 439.949219 728.609375 412.804688 714.410156 450.574219 C 712.890625 454.414062 712.355469 485.660156 712.355469 491.109375 L 727.359375 511.644531 C 747.992188 524.679688 734.238281 563.429688 747.457031 595.035156 C 755.230469 613.605469 762.199219 594.230469 765.949219 611.464844 C 776.3125 657.800781 741.027344 654.5 747.726562 683.070312 L 604.71875 686.730469 C 604.984375 675.925781 594.714844 560.929688 595.605469 552.984375 C 599.890625 516.648438 610.96875 504.59375 625.261719 469.863281 C 629.636719 459.148438 634.28125 444.328125 634.28125 429.507812 C 631.511719 429.328125 632.40625 429.773438 630.976562 432.71875 C 634.550781 445.488281 595.339844 461.46875 584.527344 461.46875 C 556.125 461.46875 533.078125 438.96875 533.078125 411.203125 C 533.078125 383.792969 555.5 361.472656 583.277344 360.847656 C 583.546875 360.847656 583.8125 360.847656 584.085938 360.757812 C 583.636719 358.703125 583.726562 358.347656 582.121094 357.097656 C 573.632812 356.113281 573.902344 324.953125 574.171875 319.953125 C 574.171875 319.953125 574.171875 318.523438 574.171875 318.347656 C 574.261719 317.457031 574.347656 316.382812 574.347656 315.492188 C 574.613281 309.957031 575.152344 310.402344 576.222656 306.027344 C 620.527344 125.578125 802.304688 240.664062 788.816406 291.199219 Z M 788.816406 291.199219 " fill-opacity="1" fill-rule="evenodd"/><path fill="#d21d53" d="M 660.191406 373.429688 C 653.757812 378.070312 642.144531 374.859375 636.253906 360.125 C 635.003906 356.914062 634.019531 353.074219 634.289062 348.25 C 634.464844 343.519531 635.894531 337.714844 640.363281 334.234375 C 644.828125 330.75 652.421875 329.5 658.226562 331.730469 C 664.121094 333.964844 668.230469 339.589844 670.375 341.195312 C 672.429688 342.714844 672.429688 340.214844 674.304688 329.859375 C 676.09375 319.410156 679.757812 301.199219 694.40625 294.589844 C 709.054688 288.070312 734.691406 293.25 749.605469 289.410156 C 764.613281 285.570312 768.988281 272.714844 767.292969 263.25 C 765.59375 253.875 757.824219 247.984375 757.378906 246.375 C 756.929688 244.675781 763.808594 247.355469 769.886719 254.855469 C 775.960938 262.355469 781.140625 274.765625 786.410156 287.175781 C 786.5 287.351562 786.589844 287.625 786.679688 287.710938 C 786.769531 287.800781 786.855469 288.066406 786.945312 288.246094 L 787.570312 289.316406 C 788.644531 291.105469 787.570312 289.765625 788.820312 291.191406 C 805.972656 230.210938 654.207031 161.820312 596.683594 243.246094 C 570.066406 280.921875 557.203125 341.546875 584.089844 360.742188 C 583.824219 360.832031 583.554688 360.832031 583.285156 360.832031 C 555.503906 361.457031 533.085938 383.777344 533.085938 411.1875 C 533.085938 438.953125 556.128906 461.453125 584.535156 461.453125 C 595.34375 461.453125 634.554688 445.472656 630.984375 432.707031 C 631.605469 431.542969 631.789062 430.742188 631.964844 430.203125 C 632.230469 429.757812 632.414062 429.578125 633.039062 429.488281 C 636.789062 426.8125 640.453125 424.132812 644.203125 421.1875 C 648.132812 418.0625 652.152344 414.582031 655.191406 410.027344 C 659.207031 404.050781 664.210938 370.574219 660.191406 373.429688 Z M 660.191406 373.429688 " fill-opacity="1" fill-rule="evenodd"/><g clip-path="url(#14fcea74eb)"><path fill="#d21d53" d="M 714.320312 491.371094 C 717.535156 492.265625 724.679688 495.121094 732.09375 504.765625 C 739.507812 514.496094 747.191406 531.015625 755.945312 547.796875 C 764.789062 564.585938 774.792969 581.546875 779.707031 592.527344 C 784.617188 603.511719 784.441406 608.511719 783.011719 617.351562 C 781.582031 626.191406 778.992188 638.777344 777.5625 652.261719 C 776.132812 665.746094 775.953125 680.117188 775.773438 688.332031 L 775.773438 688.6875 L 591.410156 688.6875 C 590.425781 683.957031 590.335938 677.351562 590.335938 667.707031 C 590.335938 636.191406 591.226562 573.246094 594.890625 537.441406 C 598.640625 501.640625 605.160156 492.886719 613.292969 486.816406 C 621.507812 480.746094 631.246094 477.265625 644.824219 477.976562 C 658.3125 478.78125 675.460938 483.78125 688.234375 489.582031 C 701.007812 495.296875 709.40625 501.902344 715.390625 506.101562 C 721.464844 510.207031 725.304688 512.082031 727.449219 513.246094 C 729.59375 514.492188 730.039062 515.207031 727.359375 511.636719 C 724.589844 508.066406 718.605469 500.210938 715.207031 495.835938 C 711.816406 491.371094 711.105469 490.390625 714.320312 491.371094 Z M 714.320312 491.371094 " fill-opacity="1" fill-rule="evenodd"/></g><path fill="#d21d53" d="M 775.058594 308.253906 C 772.113281 308.519531 766.304688 309.324219 762.730469 310.304688 C 759.160156 311.199219 757.820312 312.269531 756.300781 314.414062 C 754.691406 316.558594 752.90625 319.863281 752.191406 321.378906 C 751.566406 322.808594 752.011719 322.449219 753.707031 321.289062 C 755.40625 320.125 758.351562 318.160156 760.585938 316.824219 C 762.90625 315.484375 764.605469 314.679688 767.015625 314.410156 C 769.429688 314.234375 772.554688 314.589844 774.519531 314.679688 C 776.484375 314.769531 777.289062 314.589844 777.734375 314.054688 C 778.09375 313.519531 778.183594 312.625 778.183594 311.644531 C 778.183594 310.660156 778.09375 309.769531 778.003906 309.054688 C 778.007812 308.429688 778.007812 308.074219 775.058594 308.253906 Z M 775.058594 308.253906 " fill-opacity="1" fill-rule="evenodd"/><path fill="#d21d53" d="M 776.3125 389.769531 C 775.863281 389.589844 776.667969 390.839844 778.8125 392.714844 C 780.957031 394.5 784.261719 397.714844 787.210938 399.855469 C 789.085938 401.285156 790.78125 402.269531 792.390625 402.894531 C 793.015625 402.445312 793.640625 401.910156 794.265625 400.929688 C 796.140625 397.984375 794.53125 395.839844 794.53125 392.359375 C 799.355469 391.019531 799.445312 388.964844 798.375 384.414062 C 796.410156 384.503906 793.28125 386.109375 789.621094 387.003906 C 783.726562 388.429688 776.847656 389.949219 776.3125 389.769531 Z M 776.3125 389.769531 " fill-opacity="1" fill-rule="evenodd"/><path fill="#d21d53" d="M 787.296875 391.464844 C 783.8125 391.015625 780.0625 390.390625 776.222656 389.769531 C 775.6875 390.300781 776.757812 390.929688 778.8125 392.714844 C 780.597656 394.230469 789.53125 404.675781 789.707031 404.765625 C 791.761719 404.140625 793.636719 401.910156 794.261719 400.925781 C 796.136719 397.980469 794.617188 395.925781 794.527344 392.445312 C 792.476562 392.179688 789.976562 391.820312 787.296875 391.464844 Z M 787.296875 391.464844 " fill-opacity="1" fill-rule="evenodd"/><g clip-path="url(#e72942b222)"><path fill="#d21d53" d="M 689.128906 526.816406 C 689.128906 527.351562 689.21875 527.980469 688.863281 558.15625 C 688.503906 588.332031 687.699219 648.0625 687.34375 678.242188 L 687.253906 688.6875 L 623.746094 688.6875 L 623.65625 677.171875 C 623.566406 647.257812 623.386719 588.511719 623.207031 558.421875 C 623.117188 528.335938 622.941406 526.996094 622.941406 526.371094 C 622.492188 489.765625 688.59375 486.460938 689.128906 526.816406 Z M 689.128906 526.816406 " fill-opacity="1" fill-rule="evenodd"/></g><path fill="#f493ba" d="M 646.074219 287.183594 C 646.074219 300.664062 651.167969 307.984375 649.738281 313.34375 C 642.503906 340.484375 649.828125 339.414062 664.566406 355.308594 C 669.75 360.839844 666.085938 366.46875 660.636719 369.683594 C 658.40625 371.019531 657.78125 371.644531 655.8125 372.894531 C 655.8125 380.125 662.511719 390.128906 654.207031 392.359375 C 654.296875 395.84375 655.902344 397.984375 653.9375 400.929688 C 651.972656 404.054688 649.5625 403.25 648.222656 406.644531 C 646.257812 411.554688 654.296875 431.734375 635.269531 435.660156 C 615.082031 439.945312 588.285156 412.800781 574.082031 450.570312 C 572.652344 454.410156 572.117188 485.65625 572.117188 491.105469 L 587.035156 511.640625 C 607.667969 524.675781 594 563.425781 607.222656 595.03125 C 614.996094 613.601562 621.871094 594.226562 625.714844 611.460938 C 635.984375 657.796875 600.789062 654.496094 607.402344 683.066406 L 464.394531 686.726562 C 464.660156 675.921875 454.390625 560.925781 455.28125 552.980469 C 459.570312 516.644531 470.734375 504.589844 485.027344 469.859375 C 489.402344 459.144531 493.957031 444.324219 493.957031 429.503906 C 493.421875 429.503906 493.066406 429.503906 492.707031 429.503906 C 496.460938 426.824219 500.210938 424.148438 503.875 421.203125 C 507.894531 418.074219 511.824219 414.59375 514.953125 410.039062 C 518.972656 404.058594 523.972656 370.578125 519.953125 373.433594 C 513.429688 378.074219 501.820312 374.863281 495.925781 360.128906 C 494.675781 356.917969 493.78125 353.074219 493.960938 348.253906 C 494.226562 343.519531 495.566406 337.714844 500.035156 334.234375 C 504.589844 330.753906 512.09375 329.503906 517.988281 331.734375 C 523.796875 333.964844 527.992188 339.59375 530.046875 341.199219 C 532.191406 342.714844 532.191406 340.21875 533.976562 329.859375 C 535.851562 319.414062 539.515625 301.203125 554.164062 294.59375 C 568.8125 288.074219 594.363281 293.253906 609.367188 289.414062 C 624.375 285.570312 602.933594 264.859375 601.238281 255.398438 C 599.539062 246.023438 617.492188 247.984375 617.136719 246.378906 C 616.6875 244.683594 623.566406 247.359375 629.554688 254.863281 C 635.625 262.359375 640.894531 274.769531 646.074219 287.183594 Z M 646.074219 287.183594 " fill-opacity="1" fill-rule="evenodd"/><g clip-path="url(#888fa706e7)"><path fill="#f493ba" d="M 573.988281 491.371094 C 577.292969 492.265625 584.441406 495.121094 591.855469 504.765625 C 599.269531 514.496094 606.863281 531.015625 615.707031 547.796875 C 624.550781 564.585938 634.554688 581.546875 639.464844 592.527344 C 644.378906 603.511719 644.109375 608.511719 642.679688 617.351562 C 641.25 626.191406 638.660156 638.777344 637.230469 652.261719 C 635.800781 665.746094 635.625 680.117188 635.535156 688.332031 L 635.535156 688.6875 L 451.082031 688.6875 C 450.097656 683.957031 450.007812 677.351562 450.007812 667.707031 C 450.007812 636.191406 450.902344 573.246094 454.652344 537.441406 C 458.316406 501.640625 464.839844 492.886719 473.054688 486.816406 C 481.183594 480.746094 491.007812 477.265625 504.496094 477.976562 C 517.984375 478.78125 535.222656 483.78125 547.996094 489.582031 C 560.773438 495.296875 569.078125 501.902344 575.152344 506.101562 C 581.226562 510.207031 584.980469 512.082031 587.121094 513.246094 C 589.265625 514.492188 589.800781 515.207031 587.03125 511.636719 C 584.351562 508.066406 578.277344 500.210938 574.972656 495.835938 C 571.582031 491.371094 570.777344 490.390625 573.988281 491.371094 Z M 573.988281 491.371094 " fill-opacity="1" fill-rule="evenodd"/></g><path fill="#f493ba" d="M 519.949219 373.429688 C 513.429688 378.070312 501.816406 374.859375 495.921875 360.125 C 494.671875 356.914062 493.777344 353.074219 493.957031 348.25 C 494.226562 343.519531 495.566406 337.714844 500.03125 334.234375 C 504.585938 330.75 512.089844 329.5 517.984375 331.730469 C 523.792969 333.964844 530.847656 353.25 532.902344 354.855469 C 534.957031 356.464844 538.171875 343.429688 540.046875 333.070312 C 541.835938 322.625 580.15625 325.75 594.804688 319.230469 C 622.316406 306.910156 623.921875 271.640625 617.132812 246.375 C 616.6875 244.679688 623.566406 247.359375 629.550781 254.859375 C 635.625 262.359375 640.894531 274.769531 646.074219 287.179688 C 646.253906 287.355469 646.34375 287.625 646.433594 287.714844 C 646.433594 287.804688 646.609375 288.070312 646.699219 288.246094 L 647.234375 289.320312 C 648.308594 291.105469 647.234375 289.765625 648.574219 291.195312 C 648.753906 290.480469 648.933594 289.675781 649.023438 288.871094 L 649.023438 288.695312 C 656.171875 237 479.488281 128.519531 435.984375 306.015625 C 419.015625 365.476562 482.613281 424.671875 493.0625 429.226562 C 496.726562 426.640625 500.296875 424.046875 503.871094 421.191406 C 507.890625 418.066406 511.820312 414.585938 514.949219 410.03125 C 518.96875 404.050781 523.96875 370.574219 519.949219 373.429688 Z M 519.949219 373.429688 " fill-opacity="1" fill-rule="evenodd"/><path fill="#f493ba" d="M 562.828125 213.703125 C 565.863281 208.34375 574.617188 199.238281 584.980469 193.96875 C 595.339844 188.613281 607.222656 187.183594 616.867188 189.503906 C 626.425781 191.828125 633.753906 198.074219 640.453125 208.074219 C 647.152344 218.164062 653.316406 232.089844 654.65625 246.023438 C 656.085938 259.949219 652.601562 273.789062 650.8125 281.289062 C 648.9375 288.878906 648.757812 290.039062 647.777344 287.894531 C 646.703125 285.84375 644.917969 280.394531 640.808594 273.433594 C 636.699219 266.378906 630.269531 257.808594 621.605469 253.253906 C 612.941406 248.699219 601.953125 248.164062 592.214844 243.699219 C 582.390625 239.148438 573.816406 230.488281 568.1875 225.484375 C 562.558594 220.484375 559.878906 218.96875 562.828125 213.703125 Z M 562.828125 213.703125 " fill-opacity="1" fill-rule="evenodd"/><g clip-path="url(#2c4229801a)"><path fill="#f493ba" d="M 471.539062 231.648438 C 451.261719 250.664062 433.929688 286.46875 422.585938 328.789062 C 411.242188 371.199219 405.882812 420.035156 403.113281 477.175781 C 400.34375 534.320312 400.257812 599.675781 391.503906 640.386719 C 386.5 664.046875 378.550781 679.402344 374.441406 688.691406 L 419.90625 688.691406 C 426.25 685.835938 432.324219 682.710938 437.683594 679.316406 C 459.03125 665.746094 467.695312 648.78125 481.453125 620.65625 C 495.296875 592.441406 514.144531 553.070312 521.46875 512.980469 C 528.703125 472.890625 524.324219 432.265625 522.359375 409.679688 C 520.484375 387.09375 520.929688 382.71875 516.464844 382.71875 C 512 382.71875 502.617188 387.183594 494.402344 384.503906 C 486.1875 381.914062 479.214844 372.273438 477.519531 357.984375 C 475.730469 343.789062 479.214844 325.042969 482.699219 309.863281 C 486.1875 294.683594 489.667969 283.078125 493.597656 269.417969 C 497.527344 255.757812 501.8125 239.863281 509.226562 229.328125 C 516.644531 218.792969 527.273438 213.523438 521.019531 212.007812 C 514.769531 210.484375 491.722656 212.628906 471.539062 231.648438 Z M 471.539062 231.648438 " fill-opacity="1" fill-rule="evenodd"/></g><path fill="#f493ba" d="M 636.070312 389.679688 C 635.535156 389.5 636.339844 390.75 638.574219 392.625 C 640.71875 394.496094 644.023438 397.625 646.972656 399.765625 C 648.847656 401.195312 650.542969 402.179688 652.152344 402.804688 C 652.777344 402.445312 653.402344 401.820312 653.941406 400.929688 C 655.90625 397.894531 654.296875 395.839844 654.207031 392.269531 C 659.121094 391.019531 659.210938 388.964844 658.136719 384.414062 C 656.082031 384.414062 653.046875 386.109375 649.382812 386.914062 C 643.394531 388.339844 636.605469 389.859375 636.070312 389.679688 Z M 636.070312 389.679688 " fill-opacity="1" fill-rule="evenodd"/><path fill="#f493ba" d="M 646.96875 391.464844 C 643.574219 390.929688 639.820312 390.390625 635.980469 389.769531 C 635.445312 390.300781 636.429688 390.839844 638.570312 392.625 C 640.359375 394.140625 649.289062 404.675781 649.378906 404.675781 C 651.433594 404.140625 653.398438 401.820312 653.933594 400.925781 C 655.898438 397.890625 654.292969 395.835938 654.203125 392.355469 C 652.152344 392.089844 649.648438 391.820312 646.96875 391.464844 Z M 646.96875 391.464844 " fill-opacity="1" fill-rule="evenodd"/><path fill="#f493ba" d="M 638.839844 306.914062 C 635.984375 307.089844 630.175781 307.984375 626.605469 308.878906 C 623.035156 309.859375 621.695312 310.839844 620.082031 312.984375 C 618.566406 315.214844 616.6875 318.519531 616.0625 319.949219 C 615.347656 321.464844 615.886719 321.109375 617.582031 319.949219 C 619.277344 318.785156 622.136719 316.824219 624.457031 315.394531 C 626.78125 314.058594 628.386719 313.253906 630.800781 313.074219 C 633.210938 312.808594 636.425781 313.164062 638.390625 313.253906 C 640.355469 313.339844 641.160156 313.253906 641.519531 312.71875 C 641.964844 312.09375 642.054688 311.203125 641.964844 310.214844 C 641.964844 309.324219 641.964844 308.34375 641.875 307.714844 C 641.789062 307.003906 641.789062 306.644531 638.839844 306.914062 Z M 638.839844 306.914062 " fill-opacity="1" fill-rule="evenodd"/><path fill="#642265" d="M 474.128906 313.34375 C 466.980469 340.484375 474.304688 339.414062 489.042969 355.308594 C 494.226562 360.839844 490.558594 366.46875 485.113281 369.683594 C 482.882812 371.019531 482.257812 371.644531 480.289062 372.894531 C 480.289062 380.125 486.898438 390.128906 478.679688 392.359375 C 478.773438 395.84375 480.289062 397.984375 478.414062 400.929688 C 476.449219 404.054688 474.035156 403.25 472.695312 406.644531 C 470.640625 411.554688 478.679688 431.734375 459.746094 435.660156 C 439.558594 439.945312 412.761719 412.800781 398.558594 450.570312 C 397.042969 454.410156 396.59375 485.65625 396.59375 491.105469 L 411.511719 511.640625 C 432.144531 524.675781 418.476562 563.425781 431.609375 595.03125 C 439.46875 613.601562 446.347656 594.226562 450.1875 611.460938 C 460.457031 657.796875 425.265625 654.496094 431.875 683.066406 L 288.867188 686.726562 C 289.132812 675.921875 278.863281 560.925781 279.753906 552.980469 C 284.042969 516.644531 295.117188 504.589844 309.410156 469.859375 C 313.875 459.144531 318.429688 444.324219 318.429688 429.503906 C 317.894531 429.503906 317.539062 429.503906 317.179688 429.503906 L 317.539062 429.238281 C 307.085938 424.683594 243.488281 365.488281 260.371094 306.023438 C 305.839844 121.023438 493.511719 240.753906 474.128906 313.34375 Z M 474.128906 313.34375 " fill-opacity="1" fill-rule="evenodd"/><path fill="#642265" d="M 393.019531 460.125 C 395.964844 460.929688 402.488281 463.519531 409.277344 472.355469 C 416.066406 481.195312 423.03125 496.371094 431.070312 511.640625 C 439.109375 526.996094 448.308594 542.445312 452.777344 552.535156 C 457.242188 562.625 457.0625 567.175781 455.722656 575.210938 C 454.472656 583.246094 452.0625 594.765625 450.8125 607.171875 C 449.472656 619.496094 449.292969 632.621094 449.203125 640.03125 C 449.113281 647.53125 449.113281 649.316406 421.15625 650.121094 C 393.199219 650.925781 337.191406 650.746094 308.878906 650.476562 C 280.472656 650.300781 279.757812 650.121094 279.757812 621.28125 C 279.757812 592.441406 280.472656 534.941406 283.867188 502.175781 C 287.261719 469.5 293.246094 461.550781 300.75 455.925781 C 308.164062 450.390625 317.097656 447.175781 329.511719 447.890625 C 341.839844 448.605469 357.5625 453.15625 369.171875 458.425781 C 380.875 463.691406 388.464844 469.765625 394.003906 473.515625 C 399.542969 477.355469 403.027344 478.960938 404.992188 480.121094 C 406.957031 481.28125 407.402344 481.90625 404.902344 478.605469 C 402.398438 475.390625 396.953125 468.15625 393.824219 464.140625 C 390.789062 460.125 390.074219 459.230469 393.019531 460.125 Z M 393.019531 460.125 " fill-opacity="1" fill-rule="evenodd"/><path fill="#642265" d="M 320.847656 559.140625 C 330.941406 559.140625 351.039062 559.050781 361.132812 559.140625 C 371.226562 559.230469 371.226562 559.496094 371.316406 559.765625 C 371.316406 560.03125 371.40625 560.300781 371.050781 575.300781 C 370.691406 590.390625 370.066406 620.121094 369.710938 635.210938 C 369.351562 650.210938 369.351562 650.476562 369.351562 650.566406 C 369.351562 650.65625 369.351562 650.65625 359.796875 650.65625 C 350.238281 650.65625 331.125 650.566406 321.5625 650.566406 C 311.917969 650.566406 311.738281 650.566406 311.652344 650.300781 C 311.652344 650.035156 311.558594 649.585938 311.472656 634.675781 C 311.382812 619.765625 311.207031 590.480469 311.117188 575.480469 C 310.9375 560.484375 310.847656 559.859375 310.847656 559.5 C 310.753906 559.140625 310.753906 559.140625 320.847656 559.140625 Z M 320.847656 559.140625 " fill-opacity="1" fill-rule="evenodd"/><g clip-path="url(#d544db3c0e)"><path fill="#642265" d="M 378.460938 688.6875 C 383.195312 684.136719 389.359375 680.117188 394.71875 676.1875 C 400.523438 671.902344 405.527344 667.796875 409.1875 664.941406 C 412.761719 662.082031 415.082031 660.386719 416.691406 661.277344 C 418.210938 662.082031 418.925781 665.5625 419.460938 668.066406 C 419.910156 670.476562 420.085938 671.992188 422.410156 668.601562 C 424.730469 665.117188 429.285156 656.722656 432.59375 652.261719 C 435.988281 647.796875 438.3125 647.261719 440.097656 647.796875 C 441.886719 648.421875 443.226562 650.117188 444.652344 649.851562 C 446.082031 649.582031 447.066406 648.6875 447.957031 648.957031 C 448.851562 649.316406 450.636719 649.941406 450.90625 652.171875 C 451.261719 654.316406 450.457031 656.546875 450.191406 658.511719 C 450.011719 660.5625 449.296875 663.0625 447.777344 667.617188 C 446.171875 672.261719 443.757812 678.957031 440.71875 685.117188 C 440.09375 686.367188 439.46875 687.53125 438.847656 688.6875 Z M 378.460938 688.6875 " fill-opacity="1" fill-rule="evenodd"/></g><g clip-path="url(#6a9efdc75e)"><path fill="#642265" d="M 471.539062 282.359375 C 441.34375 275.839844 425.890625 315.75 415.441406 359.320312 C 411.421875 376.199219 411.691406 393.960938 411.871094 402.894531 C 411.960938 411.285156 418.304688 423.875 422.855469 430.835938 C 482.882812 522.710938 520.753906 614.40625 521.652344 688.6875 L 170.066406 688.6875 C 171.585938 657.886719 173.015625 630.742188 173.730469 624.046875 C 176.769531 595.746094 188.644531 549.316406 198.921875 492.441406 C 209.105469 435.566406 217.769531 368.246094 224.554688 330.121094 C 231.433594 292 236.523438 283.070312 243.847656 273.785156 C 251.171875 264.585938 260.640625 255.035156 271.71875 243.960938 C 352.289062 163.433594 459.296875 207.183594 471.539062 282.359375 Z M 471.539062 282.359375 " fill-opacity="1" fill-rule="evenodd"/></g><path fill="#642265" d="M 471.539062 282.359375 C 441.34375 275.839844 425.890625 315.75 415.441406 359.320312 C 414.28125 364.144531 413.476562 368.964844 412.941406 373.695312 C 413.03125 371.109375 413.296875 367.175781 413.566406 361.195312 C 414.191406 347.804688 415.171875 324.144531 419.550781 304.054688 C 423.925781 283.964844 431.785156 267.445312 447.417969 256.289062 C 450.992188 253.789062 455.011719 251.464844 459.210938 249.503906 C 465.371094 259.414062 469.660156 270.484375 471.539062 282.359375 Z M 471.539062 282.359375 " fill-opacity="1" fill-rule="evenodd"/><path fill="#642265" d="M 338.53125 376.285156 C 340.496094 375.570312 348.894531 414.050781 362.46875 449.945312 C 376.046875 485.746094 394.804688 518.960938 409.097656 538.15625 C 423.390625 557.441406 433.304688 562.710938 428.390625 558.511719 C 423.390625 554.226562 403.648438 540.386719 387.394531 521.90625 C 371.046875 503.421875 358.273438 480.210938 349.609375 448.601562 C 340.945312 417 336.476562 377.089844 338.53125 376.285156 Z M 338.53125 376.285156 " fill-opacity="1" fill-rule="evenodd"/><path fill="#642265" d="M 401.683594 343.25 C 403.648438 330.484375 406.777344 310.574219 413.832031 292 C 420.890625 273.339844 431.785156 255.929688 435.984375 249.144531 C 440.273438 242.359375 437.859375 246.289062 433.039062 256.554688 C 428.214844 266.824219 420.980469 283.609375 414.636719 303.074219 C 408.386719 322.539062 403.113281 344.855469 400.882812 353.160156 C 398.738281 361.554688 399.628906 355.929688 401.683594 343.25 Z M 401.683594 343.25 " fill-opacity="1" fill-rule="evenodd"/><path fill="#642265" d="M 368.722656 353.699219 C 365.953125 346.285156 373.011719 355.128906 378.550781 365.304688 C 384.089844 375.484375 388.199219 387 394.71875 397.089844 C 401.152344 407.269531 410.082031 416.015625 414.011719 419.765625 C 418.03125 423.425781 417.140625 421.996094 413.386719 419.320312 C 409.636719 416.640625 403.203125 412.710938 393.648438 398.871094 C 384.089844 385.035156 371.496094 361.199219 368.722656 353.699219 Z M 368.722656 353.699219 " fill-opacity="1" fill-rule="evenodd"/><path fill="#642265" d="M 460.546875 389.679688 C 460.011719 389.585938 460.816406 390.839844 462.960938 392.625 C 465.105469 394.496094 468.496094 397.625 471.355469 399.855469 C 473.230469 401.195312 474.929688 402.175781 476.539062 402.890625 C 477.164062 402.441406 477.789062 401.820312 478.414062 400.925781 C 480.289062 397.890625 478.773438 395.835938 478.679688 392.265625 C 483.507812 391.015625 483.683594 388.964844 482.523438 384.410156 C 480.558594 384.410156 477.433594 386.105469 473.769531 387 C 467.871094 388.339844 461.085938 389.859375 460.546875 389.679688 Z M 460.546875 389.679688 " fill-opacity="1" fill-rule="evenodd"/><path fill="#642265" d="M 471.449219 391.464844 C 468.050781 390.929688 464.214844 390.390625 460.460938 389.769531 C 459.925781 390.300781 460.910156 390.839844 462.964844 392.625 C 464.839844 394.230469 473.773438 404.675781 473.859375 404.675781 C 475.914062 404.140625 477.789062 401.820312 478.414062 400.925781 C 480.289062 397.980469 478.773438 395.835938 478.679688 392.355469 C 476.625 392.179688 474.128906 391.820312 471.449219 391.464844 Z M 471.449219 391.464844 " fill-opacity="1" fill-rule="evenodd"/><path fill="#642265" d="M 463.316406 306.914062 C 460.371094 307.179688 454.5625 307.984375 450.992188 308.878906 C 447.417969 309.859375 446.167969 310.839844 444.558594 313.070312 C 442.953125 315.214844 441.164062 318.519531 440.449219 319.945312 C 439.824219 321.460938 440.273438 321.109375 441.96875 319.945312 C 443.664062 318.785156 446.613281 316.820312 448.933594 315.480469 C 451.167969 314.050781 452.863281 313.25 455.277344 313.070312 C 457.6875 312.890625 460.8125 313.160156 462.78125 313.246094 C 464.746094 313.421875 465.550781 313.246094 465.996094 312.710938 C 466.441406 312.175781 466.441406 311.195312 466.441406 310.300781 C 466.441406 309.320312 466.351562 308.335938 466.351562 307.710938 C 466.265625 307.003906 466.265625 306.644531 463.316406 306.914062 Z M 463.316406 306.914062 " fill-opacity="1" fill-rule="evenodd"/><path fill="#ed1968" d="M 284.578125 287.183594 C 284.578125 300.664062 289.582031 307.984375 288.152344 313.34375 C 280.917969 340.484375 288.242188 339.414062 302.980469 355.308594 C 308.164062 360.839844 304.496094 366.46875 299.136719 369.683594 C 296.816406 371.019531 296.191406 371.644531 294.3125 372.894531 C 294.3125 380.125 300.921875 390.128906 292.617188 392.359375 C 292.707031 395.84375 294.3125 397.984375 292.4375 400.929688 C 290.382812 404.054688 288.0625 403.25 286.632812 406.644531 C 284.667969 411.554688 292.707031 431.734375 273.769531 435.660156 C 253.578125 439.945312 226.78125 412.800781 212.492188 450.570312 C 211.0625 454.410156 210.527344 485.65625 210.527344 491.105469 L 225.53125 511.640625 C 246.164062 524.675781 232.410156 563.425781 245.628906 595.03125 C 253.402344 613.601562 260.277344 594.226562 264.121094 611.460938 C 274.484375 657.796875 239.199219 654.496094 245.898438 683.066406 L 102.886719 686.726562 C 103.066406 675.921875 92.792969 560.925781 93.777344 552.980469 C 98.0625 516.644531 109.140625 504.589844 123.429688 469.859375 C 127.808594 459.144531 132.453125 444.324219 132.453125 429.503906 C 131.917969 429.503906 131.46875 429.503906 131.203125 429.503906 C 134.957031 426.824219 138.617188 424.148438 142.28125 421.203125 C 146.300781 418.074219 150.230469 414.59375 153.355469 410.039062 C 157.375 404.058594 162.378906 370.578125 158.359375 373.433594 C 151.925781 378.074219 140.316406 374.863281 134.421875 360.128906 C 133.082031 356.917969 132.1875 353.074219 132.457031 348.253906 C 132.632812 343.519531 134.0625 337.714844 138.53125 334.234375 C 142.996094 330.753906 150.589844 329.503906 156.394531 331.734375 C 162.289062 333.964844 166.402344 339.59375 168.546875 341.199219 C 170.601562 342.714844 170.601562 340.21875 172.386719 329.859375 C 174.261719 319.414062 177.925781 301.203125 192.574219 294.59375 C 207.222656 288.074219 232.863281 293.253906 247.777344 289.414062 C 262.785156 285.570312 267.160156 272.71875 265.464844 263.253906 C 263.765625 253.878906 255.996094 247.984375 255.550781 246.375 C 255.101562 244.679688 261.980469 247.359375 268.054688 254.859375 C 274.132812 262.359375 279.308594 274.769531 284.578125 287.183594 Z M 284.578125 287.183594 " fill-opacity="1" fill-rule="evenodd"/><g clip-path="url(#7e44bdf869)"><path fill="#ed1968" d="M 212.496094 491.371094 C 215.710938 492.265625 222.859375 495.121094 230.273438 504.765625 C 237.6875 514.496094 245.367188 531.015625 254.121094 547.796875 C 262.96875 564.585938 272.972656 581.546875 277.882812 592.527344 C 282.796875 603.511719 282.617188 608.511719 281.1875 617.351562 C 279.757812 626.191406 277.167969 638.777344 275.738281 652.261719 C 274.308594 665.746094 274.039062 680.117188 273.949219 688.332031 L 273.949219 688.6875 L 89.585938 688.6875 C 88.601562 683.957031 88.511719 677.351562 88.511719 667.707031 C 88.511719 636.191406 89.40625 573.246094 93.066406 537.441406 C 96.730469 501.640625 103.339844 492.886719 111.46875 486.816406 C 119.597656 480.746094 129.421875 477.265625 142.910156 477.976562 C 156.488281 478.78125 173.636719 483.78125 186.410156 489.582031 C 199.183594 495.296875 207.492188 501.902344 213.566406 506.101562 C 219.640625 510.207031 223.394531 512.082031 225.625 513.246094 C 227.769531 514.492188 228.214844 515.207031 225.535156 511.636719 C 222.765625 508.066406 216.78125 500.210938 213.386719 495.835938 C 209.996094 491.371094 209.28125 490.390625 212.496094 491.371094 Z M 212.496094 491.371094 " fill-opacity="1" fill-rule="evenodd"/></g><path fill="#ed1968" d="M 158.367188 373.429688 C 151.933594 378.070312 140.324219 374.859375 134.429688 360.125 C 133.089844 356.914062 132.195312 353.074219 132.464844 348.25 C 132.640625 343.519531 134.070312 337.714844 138.539062 334.234375 C 143.007812 330.75 150.597656 329.5 156.40625 331.730469 C 162.300781 333.964844 169.804688 360.214844 172.304688 360.480469 C 180.789062 361.554688 176.144531 333.785156 183.378906 327.980469 C 209.910156 306.285156 269.933594 302.269531 265.46875 263.253906 C 264.398438 253.789062 256 247.984375 255.554688 246.375 C 255.109375 244.679688 261.988281 247.359375 268.0625 254.859375 C 274.136719 262.359375 279.316406 274.769531 284.589844 287.179688 C 284.679688 287.355469 284.765625 287.625 284.855469 287.714844 C 284.945312 287.804688 285.035156 288.070312 285.125 288.246094 L 285.75 289.320312 C 286.820312 291.105469 285.75 289.765625 286.996094 291.195312 C 287.175781 290.480469 287.355469 289.675781 287.445312 288.871094 L 287.535156 288.695312 C 294.683594 237 118 128.519531 74.410156 306.015625 C 57.4375 365.476562 121.125 424.671875 131.574219 429.226562 C 135.148438 426.640625 138.808594 424.046875 142.292969 421.191406 C 146.3125 418.066406 150.242188 414.585938 153.371094 410.03125 C 157.382812 404.050781 162.386719 370.574219 158.367188 373.429688 Z M 158.367188 373.429688 " fill-opacity="1" fill-rule="evenodd"/><path fill="#ed1968" d="M 75.203125 279.054688 C 83.957031 279.054688 91.101562 286.199219 91.101562 295.039062 C 91.101562 303.789062 83.957031 310.929688 75.203125 310.929688 C 66.359375 310.929688 59.214844 303.785156 59.214844 295.039062 C 59.214844 286.199219 66.359375 279.054688 75.203125 279.054688 Z M 75.203125 279.054688 " fill-opacity="1" fill-rule="evenodd"/><path fill="#ed1968" d="M 53.855469 268.074219 C 63.949219 268.074219 72.167969 276.289062 72.167969 286.378906 C 72.167969 296.554688 63.949219 304.769531 53.855469 304.769531 C 43.671875 304.769531 35.457031 296.554688 35.457031 286.378906 C 35.457031 276.289062 43.671875 268.074219 53.855469 268.074219 Z M 53.855469 268.074219 " fill-opacity="1" fill-rule="evenodd"/><path fill="#ed1968" d="M 32.953125 249.859375 C 43.046875 249.859375 51.265625 258.070312 51.265625 268.160156 C 51.265625 278.339844 43.046875 286.464844 32.953125 286.464844 C 22.769531 286.464844 14.550781 278.339844 14.550781 268.160156 C 14.550781 258.074219 22.773438 249.859375 32.953125 249.859375 Z M 32.953125 249.859375 " fill-opacity="1" fill-rule="evenodd"/><path fill="#ed1968" d="M 20.628906 227.898438 C 30.722656 227.898438 38.9375 236.109375 38.9375 246.199219 C 38.9375 256.378906 30.722656 264.589844 20.628906 264.589844 C 10.53125 264.589844 2.316406 256.378906 2.316406 246.199219 C 2.316406 236.113281 10.53125 227.898438 20.628906 227.898438 Z M 20.628906 227.898438 " fill-opacity="1" fill-rule="evenodd"/><path fill="#ed1968" d="M 18.304688 201.824219 C 28.488281 201.824219 36.707031 210.039062 36.707031 220.21875 C 36.707031 230.308594 28.488281 238.519531 18.304688 238.519531 C 8.210938 238.519531 -0.00390625 230.308594 -0.00390625 220.21875 C -0.00390625 210.042969 8.210938 201.824219 18.304688 201.824219 Z M 18.304688 201.824219 " fill-opacity="1" fill-rule="evenodd"/><path fill="#ed1968" d="M 49.746094 168.96875 C 59.929688 168.96875 68.148438 177.179688 68.148438 187.269531 C 68.148438 197.359375 59.929688 205.574219 49.746094 205.574219 C 39.652344 205.574219 31.4375 197.359375 31.4375 187.269531 C 31.4375 177.183594 39.652344 168.96875 49.746094 168.96875 Z M 49.746094 168.96875 " fill-opacity="1" fill-rule="evenodd"/><path fill="#ed1968" d="M 70.113281 165.847656 C 77.257812 165.847656 83.0625 171.648438 83.0625 178.792969 C 83.0625 185.933594 77.257812 191.738281 70.113281 191.738281 C 62.96875 191.738281 57.160156 185.933594 57.160156 178.792969 C 57.160156 171.648438 62.96875 165.847656 70.113281 165.847656 Z M 70.113281 165.847656 " fill-opacity="1" fill-rule="evenodd"/><path fill="#ed1968" d="M 99.324219 193.074219 C 109.507812 193.074219 117.632812 201.289062 117.632812 211.46875 C 117.632812 221.558594 109.503906 229.769531 99.324219 229.769531 C 89.226562 229.769531 81.011719 221.558594 81.011719 211.46875 C 81.011719 201.292969 89.226562 193.074219 99.324219 193.074219 Z M 99.324219 193.074219 " fill-opacity="1" fill-rule="evenodd"/><path fill="#ed1968" d="M 111.382812 223.34375 C 121.476562 223.34375 129.691406 231.558594 129.691406 241.648438 C 129.691406 251.828125 121.476562 260.039062 111.382812 260.039062 C 101.285156 260.039062 93.070312 251.828125 93.070312 241.648438 C 93.070312 231.558594 101.285156 223.34375 111.382812 223.34375 Z M 111.382812 223.34375 " fill-opacity="1" fill-rule="evenodd"/><path fill="#ed1968" d="M 62.699219 190.933594 C 82.347656 190.933594 98.25 206.824219 98.25 226.46875 C 98.25 246.113281 82.351562 262.003906 62.699219 262.003906 C 43.042969 262.003906 27.144531 246.113281 27.144531 226.46875 C 27.144531 206.824219 43.046875 190.933594 62.699219 190.933594 Z M 62.699219 190.933594 " fill-opacity="1" fill-rule="evenodd"/><path fill="#ed1968" d="M 80.027344 219.503906 C 99.679688 219.503906 115.582031 235.394531 115.582031 255.039062 C 115.582031 274.683594 99.683594 290.574219 80.027344 290.574219 C 60.375 290.574219 44.476562 274.683594 44.476562 255.039062 C 44.476562 235.394531 60.375 219.503906 80.027344 219.503906 Z M 80.027344 219.503906 " fill-opacity="1" fill-rule="evenodd"/><path fill="#ed1968" d="M 88.246094 166.914062 C 95.394531 166.914062 101.195312 172.71875 101.195312 179.859375 C 101.195312 186.914062 95.390625 192.71875 88.246094 192.71875 C 81.101562 192.71875 75.292969 186.914062 75.292969 179.859375 C 75.292969 172.71875 81.097656 166.914062 88.246094 166.914062 Z M 88.246094 166.914062 " fill-opacity="1" fill-rule="evenodd"/><path fill="#ed1968" d="M 106.199219 177.183594 C 113.347656 177.183594 119.148438 182.988281 119.148438 190.128906 C 119.148438 197.269531 113.34375 202.988281 106.199219 202.988281 C 99.050781 202.988281 93.246094 197.273438 93.246094 190.128906 C 93.246094 182.984375 99.054688 177.183594 106.199219 177.183594 Z M 106.199219 177.183594 " fill-opacity="1" fill-rule="evenodd"/><path fill="#ed1968" d="M 114.417969 190.84375 C 121.566406 190.84375 127.371094 196.648438 127.371094 203.789062 C 127.371094 210.929688 121.5625 216.734375 114.417969 216.734375 C 107.269531 216.734375 101.554688 210.929688 101.554688 203.789062 C 101.554688 196.648438 107.269531 190.84375 114.417969 190.84375 Z M 114.417969 190.84375 " fill-opacity="1" fill-rule="evenodd"/><path fill="#ed1968" d="M 116.472656 206.914062 C 123.621094 206.914062 129.335938 212.71875 129.335938 219.859375 C 129.335938 227 123.621094 232.804688 116.472656 232.804688 C 109.328125 232.804688 103.523438 227 103.523438 219.859375 C 103.523438 212.71875 109.328125 206.914062 116.472656 206.914062 Z M 116.472656 206.914062 " fill-opacity="1" fill-rule="evenodd"/><path fill="#ed1968" d="M 81.1875 181.203125 C 88.335938 181.203125 94.140625 186.917969 94.140625 194.058594 C 94.140625 201.203125 88.332031 207.003906 81.1875 207.003906 C 74.042969 207.003906 68.238281 201.203125 68.238281 194.058594 C 68.238281 186.917969 74.042969 181.203125 81.1875 181.203125 Z M 81.1875 181.203125 " fill-opacity="1" fill-rule="evenodd"/><path fill="#ed1968" d="M 30.1875 181.289062 C 40.371094 181.289062 48.585938 189.503906 48.585938 199.59375 C 48.585938 209.769531 40.371094 217.984375 30.1875 217.984375 C 20.09375 217.984375 11.875 209.769531 11.875 199.59375 C 11.871094 189.503906 20.09375 181.289062 30.1875 181.289062 Z M 30.1875 181.289062 " fill-opacity="1" fill-rule="evenodd"/><g clip-path="url(#dc35fd171e)"><path fill="#ed1968" d="M 133.445312 599.761719 C 144.519531 599.761719 166.582031 599.671875 177.570312 599.761719 C 188.644531 599.851562 188.644531 600.121094 188.738281 600.386719 C 188.738281 600.65625 188.828125 601.011719 188.46875 617.441406 C 188.113281 633.960938 187.304688 666.546875 186.953125 682.972656 L 186.863281 688.6875 L 123.351562 688.6875 L 123.261719 682.441406 C 123.167969 666.101562 122.992188 634.050781 122.8125 617.621094 C 122.722656 601.191406 122.542969 600.476562 122.542969 600.121094 C 122.457031 599.761719 122.457031 599.761719 133.445312 599.761719 Z M 133.445312 599.761719 " fill-opacity="1" fill-rule="evenodd"/></g><path fill="#ed1968" d="M 274.484375 389.859375 C 273.949219 389.679688 274.753906 390.929688 276.988281 392.804688 C 279.132812 394.589844 282.4375 397.804688 285.386719 399.949219 C 287.257812 401.375 288.957031 402.359375 290.566406 402.984375 C 291.191406 402.535156 291.816406 402 292.441406 401.019531 C 294.316406 398.074219 292.710938 396.019531 292.617188 392.449219 C 297.53125 391.109375 297.621094 389.054688 296.546875 384.503906 C 294.582031 384.59375 291.457031 386.199219 287.792969 387.09375 C 281.8125 388.519531 275.023438 390.035156 274.484375 389.859375 Z M 274.484375 389.859375 " fill-opacity="1" fill-rule="evenodd"/><path fill="#ed1968" d="M 285.386719 391.554688 C 281.988281 391.105469 278.238281 390.484375 274.398438 389.949219 C 273.863281 390.394531 274.847656 391.019531 276.988281 392.804688 C 278.777344 394.320312 287.707031 404.765625 287.796875 404.855469 C 289.851562 404.234375 291.816406 402 292.441406 401.015625 C 294.316406 398.070312 292.710938 396.015625 292.617188 392.535156 C 290.5625 392.269531 288.15625 391.910156 285.386719 391.554688 Z M 285.386719 391.554688 " fill-opacity="1" fill-rule="evenodd"/><path fill="#ed1968" d="M 277.253906 307.003906 C 274.398438 307.269531 268.589844 308.074219 265.019531 309.058594 C 261.449219 309.949219 260.105469 311.019531 258.496094 313.164062 C 256.980469 315.308594 255.101562 318.613281 254.476562 320.128906 C 253.761719 321.558594 254.300781 321.199219 255.996094 320.128906 C 257.691406 318.964844 260.550781 317.003906 262.871094 315.578125 C 265.195312 314.238281 266.800781 313.433594 269.304688 313.164062 C 271.714844 312.988281 274.839844 313.34375 276.808594 313.433594 C 278.773438 313.523438 279.578125 313.34375 279.933594 312.808594 C 280.382812 312.273438 280.46875 311.378906 280.382812 310.398438 C 280.382812 309.414062 280.382812 308.523438 280.292969 307.808594 C 280.203125 307.179688 280.203125 306.824219 277.253906 307.003906 Z M 277.253906 307.003906 " fill-opacity="1" fill-rule="evenodd"/></svg>